<svg xmlns="http://www.w3.org/2000/svg" viewBox="0 0 64 64" width="64" height="64" font-family="Georgia, 'Times New Roman', serif">
  <rect x="2" y="2" width="60" height="60" rx="13" fill="#12161d" stroke="#caa64f" stroke-width="2.5"/>
  <!-- globe -->
  <clipPath id="g"><circle cx="30" cy="33" r="19"/></clipPath>
  <circle cx="30" cy="33" r="19" fill="#12384f"/>
  <g clip-path="url(#g)">
    <!-- graticule -->
    <g fill="none" stroke="#9fd0e6" stroke-opacity="0.35" stroke-width="0.7">
      <ellipse cx="30" cy="33" rx="6.3" ry="19"/>
      <ellipse cx="30" cy="33" rx="13" ry="19"/>
      <line x1="11" y1="33" x2="49" y2="33"/>
      <path d="M12.5 23 H 47.5 M12.5 43 H 47.5"/>
    </g>
    <!-- landmasses -->
    <g fill="#e6c65a" fill-opacity="0.9">
      <path d="M18 26 c 4 -2 9 -1 11 2 c 2 3 -1 6 -5 6 c -5 1 -9 -1 -9 -4 c 0 -2 1 -3 3 -4 z"/>
      <path d="M33 38 c 5 -1 10 1 11 4 c 1 3 -3 6 -8 5 c -4 -1 -7 -3 -6 -6 c 0 -1 1 -2 3 -3 z"/>
      <path d="M22 42 c 3 0 5 2 4 4 c -1 2 -4 2 -6 1 c -2 -1 -2 -3 0 -4 z"/>
    </g>
  </g>
  <circle cx="30" cy="33" r="19" fill="none" stroke="#caa64f" stroke-width="1.6"/>
  <!-- place-name labels with leader dots -->
  <g fill="#f2e6c8">
    <circle cx="25" cy="28" r="1.1" fill="#fff"/>
    <line x1="25" y1="28" x2="19" y2="18" stroke="#f2e6c8" stroke-width="0.6"/>
    <rect x="6" y="14" width="16" height="6" rx="1.4" fill="#12161d" stroke="#caa64f" stroke-width="0.5"/>
    <text x="14" y="18.6" text-anchor="middle" font-size="4.2" letter-spacing="0.3">THULE</text>
    <circle cx="37" cy="40" r="1.1" fill="#fff"/>
    <line x1="37" y1="40" x2="45" y2="49" stroke="#f2e6c8" stroke-width="0.6"/>
    <rect x="41" y="47" width="18" height="6" rx="1.4" fill="#12161d" stroke="#caa64f" stroke-width="0.5"/>
    <text x="50" y="51.6" text-anchor="middle" font-size="4.2" letter-spacing="0.3">AVALON</text>
  </g>
</svg>
